<mxfile host="app.diagrams.net" modified="2023-06-03T22:12:38.877Z" agent="Mozilla/5.0 (Windows NT 10.0; Win64; x64) AppleWebKit/537.36 (KHTML, like Gecko) Chrome/113.0.0.0 Safari/537.36" version="21.3.2" etag="uumRDs15ORLP-B3J9lBD" type="github">
  <diagram name="PÃ¡gina-1" id="OmHu6IU3zUafyPIJ44Nh">
    <mxGraphModel>
      <root>
        <mxCell id="0" />
        <mxCell id="1" parent="0" />
      </root>
    </mxGraphModel>
  </diagram>
</mxfile>
